# xmcd CD database file
# Copyright (C) 1996 Ti Kan
#
# Track frame offsets:
# 	150
# 	18455
# 	35327
# 	50122
# 	65595
# 	82087
# 	100095
# 	113680
# 	130562
# 	147300
#
# Disc length: 2156 seconds
#
# Revision: 1
# Processed by: cddbd v1.4b41PL1 Copyright (c) Steve Scherf et al.
# Submitted via: DiscPlay 3.3.1
#
DISCID=86086a0a
DTITLE=Shenandoah - The Road Not Taken
DYEAR=1900
DGENRE=
TTITLE0=Sunday In The South
TTITLE1=Two Dozen Roses
TTITLE2=See If I Care
TTITLE3=Mama Knows
TTITLE4=She Doesn't Cry Anymore
TTITLE5=The Road Not Taken
TTITLE6=The Church On Cumberland Road
TTITLE7=Changes
TTITLE8=She's All I've Got Going
TTITLE9=Hard Country
EXTD=
EXTT0=
EXTT1=
EXTT2=
EXTT3=
EXTT4=
EXTT5=
EXTT6=
EXTT7=
EXTT8=
EXTT9=
PLAYORDER=
